# Blender v2.80 (sub 75) OBJ File: ''
# www.blender.org
mtllib bowstringtrussbridge.mtl
o Cube_Cube.005
v -11.381001 -0.098588 -1.981891
v -7.495929 4.009007 -1.981885
v -7.495929 4.009007 -2.186616
v -11.381001 -0.098588 -2.184738
v -7.291201 4.119473 -1.981888
v -3.704823 5.716435 -1.981887
v -3.704823 5.716435 -2.186616
v -7.291201 4.119473 -2.186616
v -3.704823 5.481310 -2.186615
v -7.291203 3.884346 -2.186615
v -7.495930 3.773882 2.188003
v -7.495928 4.009007 2.188003
v -11.381001 -0.098588 2.193047
v -11.217327 -0.266173 2.193047
v -3.704823 5.481310 -1.981887
v -7.291201 3.884346 -1.981888
v -3.500093 5.808446 -2.186616
v -3.500095 5.573328 -2.186616
v -0.061873 6.132319 -2.186471
v -0.061872 6.367445 -2.186471
v 0.142857 6.366622 -2.186471
v 0.142856 6.131498 -2.186470
v -3.500093 5.573322 -1.981888
v -0.061873 6.132319 -1.981743
v -0.061872 6.367445 -1.981742
v -3.500093 5.808446 -1.981888
v -7.291200 3.884346 2.188003
v -7.291200 4.119472 2.188003
v -7.495929 3.773883 -2.186615
v 0.132902 6.366621 2.197954
v -0.071826 6.366621 2.197954
v -0.071826 6.131496 2.197954
v 0.132902 6.131496 2.197954
v -3.500095 5.808444 2.188002
v -3.704823 5.716434 2.188003
v -3.704823 5.481308 2.188002
v -3.500095 5.573325 2.188002
v 0.039658 -0.045691 2.244181
v 0.039654 -0.045690 -2.227297
v -3.612593 -0.045690 -2.227297
v -3.612592 -0.045690 2.244181
v -3.612593 -0.250927 -2.227297
v -3.612592 -0.250927 2.244181
v -7.395703 -0.250927 2.244181
v -7.395706 -0.250927 -2.227297
v 0.039654 -0.250927 -2.227297
v 0.039658 -0.250928 2.244181
v -7.395703 -0.045690 2.244181
v -7.395706 -0.045690 -2.227297
v -11.407564 -0.060936 -2.227297
v -11.407564 -0.060936 2.244181
v -11.407564 -0.266173 -2.227297
v -11.407564 -0.266173 2.244181
v -11.217327 -0.266173 -1.981891
v -7.495931 3.773883 -1.981888
v -7.495928 4.009007 1.983275
v -11.381001 -0.098588 1.993367
v -3.704823 5.716434 1.983274
v -7.291200 4.119472 1.983275
v -3.704823 5.481308 1.983275
v -7.291202 3.884346 1.983275
v -11.217327 -0.266173 -2.184738
v -7.495928 3.773882 1.983275
v -11.217327 -0.266173 1.993367
v -0.071826 6.367445 2.197955
v -3.500097 5.573325 1.983275
v -0.071826 6.132318 1.993226
v -3.500095 5.808444 1.983274
v -0.071826 6.367445 1.993226
v 7.566960 3.773882 -2.176519
v 7.566959 4.009007 -2.176520
v 11.200101 -0.098588 -2.183407
v 11.063738 -0.266173 -2.184738
v 11.200101 -0.098588 1.994697
v 7.566960 4.009007 1.993370
v 7.566961 4.009007 2.198098
v 11.200101 -0.098588 2.194378
v 7.362231 4.119471 1.993370
v 3.775854 5.716434 1.993370
v 3.775854 5.716434 2.198100
v 7.362233 4.119471 2.198098
v 3.775854 5.481308 2.198099
v 7.362235 3.884346 2.198098
v 11.063738 -0.266173 -1.981891
v 11.200101 -0.098588 -1.980561
v 7.566959 4.009007 -1.971791
v 7.566960 3.773882 -1.971793
v 11.224548 -0.266173 2.193047
v 7.566961 3.773880 2.198097
v 11.063738 -0.266173 2.193047
v 3.775855 5.481308 1.993372
v 7.362231 3.884345 1.993371
v 3.571125 5.808444 2.198100
v 3.571127 5.573319 2.198099
v 3.571125 5.573318 1.993372
v 0.132906 6.132318 1.983419
v 0.132904 6.367445 1.983418
v 3.571125 5.808444 1.993372
v 7.362230 3.884345 -2.176519
v 7.362230 4.119473 -2.176519
v 3.571127 5.808447 -2.176518
v 3.775854 5.716434 -2.176519
v 3.775855 5.481310 -2.176518
v 3.571127 5.573322 -2.176518
v 3.683625 -0.045691 2.244181
v 3.683624 -0.045690 -2.227297
v 3.683625 -0.250928 2.244181
v 3.683624 -0.250927 -2.227297
v 7.466735 -0.250927 -2.227297
v 7.466739 -0.250928 2.244181
v 7.466735 -0.045690 -2.227297
v 7.466739 -0.045691 2.244181
v 11.224548 -0.060936 2.244181
v 11.224548 -0.060936 -2.227297
v 11.224548 -0.266173 -2.227297
v 11.224548 -0.266173 2.244181
v 3.775854 5.716434 -1.971791
v 7.362230 4.119473 -1.971791
v 3.775854 5.481310 -1.971791
v 7.362234 3.884345 -1.971792
v 11.063738 -0.266173 1.993367
v 7.566961 3.773882 1.993370
v 3.571129 5.573322 -1.971791
v 0.142857 6.132319 -1.981742
v 3.571127 5.808447 -1.971789
v 0.142857 6.367445 -1.981742
v -7.495930 -0.085762 2.187999
v -7.291200 -0.085860 2.187999
v -7.291202 -0.085860 1.983272
v -7.495928 -0.085762 1.983272
v -3.704823 -0.054186 2.187999
v -3.500095 -0.053254 2.187999
v -3.500097 -0.053254 1.983272
v -3.704823 -0.054186 1.983272
v 0.132902 -0.109030 2.197951
v 0.132906 -0.108209 1.983416
v -0.071826 -0.108209 1.993223
v -0.071826 -0.109030 2.197951
v 3.571125 -0.086511 1.993369
v 3.571127 -0.086510 2.198096
v 3.775854 -0.102035 2.198096
v 3.775855 -0.102035 1.993368
v 7.362235 -0.037771 2.198095
v 7.566961 -0.043992 2.198094
v 7.362231 -0.037771 1.993367
v 7.566961 -0.043992 1.993367
v -7.495931 -0.085762 -1.981891
v -7.291201 -0.085860 -1.981891
v -7.291203 -0.085860 -2.186618
v -7.495929 -0.085762 -2.186618
v -3.704823 -0.054186 -1.981891
v -3.500095 -0.053254 -1.981891
v -3.500097 -0.053254 -2.186619
v -3.704823 -0.054186 -2.186619
v 0.132906 6.132319 -2.186471
v 0.132902 6.131498 -1.971936
v 0.132902 -0.109030 -1.971939
v 0.132906 -0.108209 -2.186474
v -0.071826 6.131498 -1.971936
v -0.071826 6.132319 -2.176663
v -0.071826 -0.108209 -2.176666
v -0.071826 -0.109030 -1.971939
v 3.571125 -0.086511 -2.176522
v 3.571127 -0.086510 -1.971794
v 3.775854 -0.102035 -1.971795
v 3.775855 -0.102035 -2.176522
v 7.362234 -0.037771 -1.971795
v 7.566960 -0.043992 -1.971796
v 7.362230 -0.037771 -2.176523
v 7.566960 -0.043992 -2.176523
v 0.202907 -0.182262 -2.171878
v 0.012409 -0.038765 -2.171878
v 3.617467 5.761765 -2.171876
v 3.617467 5.366635 -2.171876
v 7.400570 3.794631 -1.982864
v 7.400570 4.050179 -1.982864
v 3.687201 -0.047642 -1.982867
v 3.822423 -0.189225 -1.982867
v 3.617467 5.366635 -1.982863
v 3.617467 5.761765 -1.982863
v 0.012409 -0.038765 -1.982866
v 0.202907 -0.182262 -1.982866
v 3.822423 -0.189225 -2.171879
v 3.687201 -0.047642 -2.171879
v 7.400570 4.050179 -2.171876
v 7.400570 3.794631 -2.171876
v -0.207021 -0.182262 -1.982867
v -0.016523 -0.038765 -1.982867
v -3.621581 5.742414 -1.982862
v -3.621581 5.366635 -1.982862
v -7.404685 3.794631 -2.171872
v -7.404685 4.050179 -2.171872
v -3.691315 -0.047642 -2.171878
v -3.826537 -0.189225 -2.171877
v -3.621581 5.366635 -2.171874
v -3.621581 5.742414 -2.171875
v -0.016523 -0.038765 -2.171878
v -0.207021 -0.182262 -2.171878
v -3.826537 -0.189225 -1.982865
v -3.691315 -0.047642 -1.982865
v -7.404685 4.050179 -1.982862
v -7.404685 3.794631 -1.982862
v 0.202907 -0.182262 2.003332
v 0.012409 -0.038765 2.003332
v 3.617467 5.761765 2.003334
v 3.617467 5.366632 2.003334
v 7.400571 3.794631 2.192345
v 7.400571 4.050179 2.192345
v 3.687201 -0.047642 2.192343
v 3.822423 -0.189225 2.192343
v 3.617467 5.366632 2.192346
v 3.617467 5.761765 2.192346
v 0.012409 -0.038765 2.192343
v 0.202907 -0.182262 2.192343
v 3.822423 -0.189225 2.003331
v 3.687201 -0.047642 2.003331
v 7.400571 4.050179 2.003334
v 7.400571 3.794630 2.003334
v -0.207021 -0.182262 2.192343
v -0.016523 -0.038765 2.192343
v -3.621581 5.747416 2.192347
v -3.621581 5.366632 2.192347
v -7.404685 3.794631 2.003336
v -7.404685 4.050179 2.003336
v -3.691315 -0.047642 2.003332
v -3.826537 -0.189225 2.003333
v -3.621581 5.366632 2.003336
v -3.621581 5.747416 2.003335
v -0.016523 -0.038765 2.003331
v -0.207021 -0.182262 2.003331
v -3.826537 -0.189225 2.192344
v -3.691315 -0.047642 2.192343
v -7.404685 4.050179 2.192347
v -7.404685 3.794630 2.192348
v 3.581638 5.556551 2.164643
v 3.581636 5.791677 2.164643
v 3.765355 5.503581 2.164643
v 3.786365 5.681211 2.164643
v 3.577262 5.568010 -2.176518
v -0.048897 6.130062 2.164643
v -0.048898 6.365187 2.164644
v 3.577262 5.803135 -2.176518
v 3.781992 5.457551 -2.176518
v 0.134820 6.140029 2.164643
v 3.781991 5.692677 -2.176519
v 0.155831 6.317667 2.164644
v -3.589899 5.535357 -2.022108
v -7.324673 3.851660 2.164644
v -7.490932 4.004364 2.164645
v -3.756157 5.687658 -2.022108
v -3.468852 5.595623 -2.022108
v -7.157308 3.944110 2.164644
v -3.533283 5.768270 -2.022110
v -7.268057 4.084569 2.164645
v 0.000620 6.179832 -2.176518
v -3.597548 5.550395 2.164643
v -3.678442 5.716815 2.164644
v -0.080273 6.357368 -2.176518
v 0.230856 6.180772 -2.176518
v -3.428477 5.622963 2.164643
v 0.149962 6.367314 -2.176519
v -3.469862 5.796987 2.164644
vn -0.7265 0.6872 0.0000
vn -0.4068 0.9135 0.0000
vn 0.0000 -0.0000 -1.0000
vn 0.0009 0.0004 1.0000
vn 0.4068 -0.9135 -0.0000
vn 0.0000 -0.0000 1.0000
vn 0.1605 -0.9870 -0.0000
vn -0.1605 0.9870 0.0000
vn 1.0000 -0.0000 -0.0000
vn 0.4749 -0.8801 -0.0000
vn -1.0000 0.0000 -0.0000
vn -0.4749 0.8801 0.0000
vn 0.0020 1.0000 0.0001
vn -1.0000 0.0000 -0.0023
vn -0.0020 -1.0000 -0.0001
vn 1.0000 -0.0000 0.0023
vn -0.4099 0.9121 0.0000
vn 0.4100 -0.9121 -0.0000
vn 0.0000 1.0000 0.0000
vn -0.0000 -1.0000 -0.0000
vn 0.0019 -1.0000 -0.0000
vn -0.0019 1.0000 0.0000
vn -0.0038 1.0000 0.0000
vn 0.0038 -1.0000 -0.0000
vn -0.0003 -0.0001 -1.0000
vn -0.0018 -0.0008 -1.0000
vn -0.0029 -0.0000 1.0000
vn 0.1608 -0.9870 -0.0020
vn 0.0029 -0.0000 -1.0000
vn -0.1609 0.9870 0.0000
vn 0.0012 0.0029 -1.0000
vn 0.7490 0.6625 -0.0000
vn 0.4068 0.9135 -0.0000
vn -0.0008 -0.0030 1.0000
vn -0.0018 -0.0028 1.0000
vn -0.4068 -0.9135 0.0000
vn -0.1604 -0.9871 -0.0019
vn 0.1604 0.9871 0.0019
vn -0.4749 -0.8801 0.0000
vn 0.4749 0.8801 0.0000
vn 0.4099 0.9121 0.0000
vn -0.4099 -0.9121 -0.0000
vn -0.0020 -1.0000 -0.0000
vn 0.0020 1.0000 0.0000
vn 0.0041 1.0000 0.0000
vn -0.0041 -1.0000 -0.0000
vn 0.0029 0.0023 -1.0000
vn -0.1608 -0.9870 0.0020
vn 0.1608 0.9870 -0.0020
vn -0.0478 0.0000 -0.9989
vn -0.0479 0.0000 -0.9989
vn 0.7440 -0.6682 0.0000
vn -0.7410 0.6715 0.0000
vn 0.8517 -0.5241 0.0000
vn -0.8493 0.5279 0.0000
vn -0.7440 -0.6682 0.0000
vn 0.7410 0.6715 0.0000
vn -0.8517 -0.5241 0.0000
vn 0.8485 0.5291 0.0000
vn 0.8487 0.5288 0.0000
vn -0.7541 -0.0000 -0.6567
vn -0.3877 -0.9215 0.0225
vn 0.7453 -0.0379 0.6657
vn 0.4735 0.8776 0.0743
vn -0.7675 -0.0000 -0.6411
vn -0.2498 -0.9657 -0.0709
vn 0.7631 -0.0388 0.6451
vn 0.3547 0.9193 0.1706
vn -0.5026 -0.5479 -0.6687
vn 0.4670 -0.8820 0.0627
vn 0.6270 0.3508 0.6956
vn -0.3384 0.9380 0.0753
vn -0.7024 -0.3304 -0.6305
vn 0.1810 -0.9833 0.0169
vn 0.7267 0.2464 0.6413
vn -0.2011 0.9791 -0.0306
vn -0.7561 -0.6544 -0.0000
vn 0.7355 -0.6775 0.0000
usemtl Base
s 1
f 1//1 2//1 3//1 4//1
f 5//2 6//2 7//2 8//2
f 8//3 7//3 9//3 10//3
f 11//4 12//4 13//4 14//4
f 10//5 9//5 15//5 16//5
f 16//6 15//6 6//6 5//6
f 9//3 7//3 17//3 18//3
f 19//3 20//3 21//3 22//3
f 23//6 24//6 25//6 26//6
f 18//7 19//7 24//7 23//7
f 17//3 20//3 19//3 18//3
f 26//8 25//8 20//8 17//8
f 27//9 10//9 8//9 28//9
f 11//10 29//10 10//10 27//10
f 12//11 3//11 29//11 11//11
f 28//12 8//12 3//12 12//12
f 30//13 21//13 20//13 31//13
f 31//14 20//14 19//14 32//14
f 32//15 19//15 22//15 33//15
f 33//16 22//16 21//16 30//16
f 34//17 17//17 7//17 35//17
f 35//11 7//11 9//11 36//11
f 36//18 9//18 18//18 37//18
f 37//9 18//9 17//9 34//9
f 38//19 39//19 40//19 41//19
f 42//20 43//20 44//21 45//21
f 46//20 47//20 43//20 42//20
f 39//3 46//3 42//3 40//3
f 47//6 38//6 41//6 43//6
f 48//22 49//22 50//23 51//23
f 43//6 41//6 48//6 44//6
f 41//19 40//19 49//22 48//22
f 40//3 42//3 45//3 49//3
f 52//11 53//11 51//11 50//11
f 44//6 48//6 51//6 53//6
f 49//3 45//3 52//3 50//3
f 45//21 44//21 53//24 52//24
f 3//3 8//3 10//3 29//3
f 1//6 54//6 55//6 2//6
f 13//1 12//1 56//1 57//1
f 28//2 35//2 58//2 59//2
f 59//3 58//3 60//3 61//3
f 3//25 29//25 62//25 4//25
f 57//26 56//26 63//26 64//26
f 61//5 60//5 36//5 27//5
f 27//6 36//6 35//6 28//6
f 37//27 32//27 65//27 34//27
f 66//28 67//28 32//28 37//28
f 68//29 69//29 67//29 66//29
f 34//30 65//30 69//30 68//30
f 36//6 37//6 34//6 35//6
f 28//6 12//6 11//6 27//6
f 32//6 33//6 30//6 31//6 65//6
f 70//31 71//31 72//31 73//31
f 74//32 75//32 76//32 77//32
f 78//33 79//33 80//33 81//33
f 81//6 80//6 82//6 83//6
f 84//34 85//34 86//34 87//34
f 88//35 77//35 76//35 89//35 90//35
f 83//36 82//36 91//36 92//36
f 92//3 91//3 79//3 78//3
f 82//6 80//6 93//6 94//6
f 95//29 96//29 97//29 98//29
f 94//37 33//37 96//37 95//37
f 93//6 30//6 33//6 94//6
f 98//38 97//38 30//38 93//38
f 99//11 83//11 81//11 100//11
f 70//39 89//39 83//39 99//39
f 71//9 76//9 89//9 70//9
f 100//40 81//40 76//40 71//40
f 101//41 93//41 80//41 102//41
f 102//9 80//9 82//9 103//9
f 103//42 82//42 94//42 104//42
f 104//11 94//11 93//11 101//11
f 39//19 38//19 105//19 106//19
f 107//20 108//20 109//43 110//43
f 47//20 46//20 108//20 107//20
f 38//6 47//6 107//6 105//6
f 46//3 39//3 106//3 108//3
f 111//44 112//44 113//45 114//45
f 108//3 106//3 111//3 109//3
f 106//19 105//19 112//44 111//44
f 105//6 107//6 110//6 112//6
f 109//3 111//3 114//3 115//3
f 112//6 110//6 116//6 113//6
f 110//43 109//43 115//46 116//46
f 76//6 81//6 83//6 89//6
f 72//32 71//32 86//32 85//32
f 100//33 102//33 117//33 118//33
f 118//6 117//6 119//6 120//6
f 121//47 122//47 75//47 74//47
f 120//36 119//36 103//36 99//36
f 99//3 103//3 102//3 100//3
f 104//29 22//29 21//29 101//29
f 123//48 124//48 22//48 104//48
f 125//27 126//27 124//27 123//27
f 101//49 21//49 126//49 125//49
f 103//3 104//3 101//3 102//3
f 100//3 71//3 70//3 99//3
f 27//6 11//6 127//6 128//6
f 61//9 27//9 128//9 129//9
f 11//11 63//11 130//11 127//11
f 37//6 36//6 131//6 132//6
f 66//9 37//9 132//9 133//9
f 36//11 60//11 134//11 131//11
f 96//9 33//9 135//9 136//9
f 32//11 67//11 137//11 138//11
f 33//6 32//6 138//6 135//6
f 94//11 95//11 139//11 140//11
f 91//9 82//9 141//9 142//9
f 94//6 140//6 141//6 82//6
f 89//6 83//6 143//6 144//6
f 83//11 92//11 145//11 143//11
f 122//9 89//9 144//9 146//9
f 92//3 122//3 146//3 145//3
f 95//3 91//3 142//3 139//3
f 136//50 137//50 67//50 96//50
f 133//3 134//3 60//3 66//3
f 63//3 61//3 129//3 130//3
f 16//6 55//6 147//6 148//6
f 10//9 16//9 148//9 149//9
f 55//11 29//11 150//11 147//11
f 23//6 15//6 151//6 152//6
f 18//9 23//9 152//9 153//9
f 15//11 9//11 154//11 151//11
f 155//9 156//9 157//9 158//9
f 159//11 160//11 161//11 162//11
f 156//6 159//6 162//6 157//6
f 123//11 104//11 163//11 164//11
f 103//9 119//9 165//9 166//9
f 123//6 164//6 165//6 119//6
f 87//6 120//6 167//6 168//6
f 120//11 99//11 169//11 167//11
f 70//9 87//9 168//9 170//9
f 99//3 70//3 170//3 169//3
f 104//3 103//3 166//3 163//3
f 158//51 161//51 160//51 155//51
f 153//3 154//3 9//3 18//3
f 29//3 10//3 149//3 150//3
f 171//3 172//3 173//3 174//3
f 175//6 176//6 177//6 178//6
f 179//6 180//6 181//6 182//6
f 183//3 184//3 185//3 186//3
f 175//52 178//52 183//52 186//52
f 177//53 176//53 185//53 184//53
f 179//54 182//54 171//54 174//54
f 181//55 180//55 173//55 172//55
f 187//6 188//6 189//6 190//6
f 191//3 192//3 193//3 194//3
f 195//3 196//3 197//3 198//3
f 199//6 200//6 201//6 202//6
f 191//56 194//56 199//56 202//56
f 193//57 192//57 201//57 200//57
f 195//58 198//58 187//58 190//58
f 197//59 196//59 189//59 188//59
f 203//3 204//3 205//3 206//3
f 207//6 208//6 209//6 210//6
f 211//6 212//6 213//6 214//6
f 215//3 216//3 217//3 218//3
f 207//52 210//52 215//52 218//52
f 209//53 208//53 217//53 216//53
f 211//54 214//54 203//54 206//54
f 213//55 212//55 205//55 204//55
f 219//6 220//6 221//6 222//6
f 223//3 224//3 225//3 226//3
f 227//3 228//3 229//3 230//3
f 231//6 232//6 233//6 234//6
f 223//56 226//56 231//56 234//56
f 225//57 224//57 233//57 232//57
f 227//58 230//58 219//58 222//58
f 229//60 228//60 221//60 220//60
f 99//61 235//61 236//61 100//61
f 70//62 237//62 235//62 99//62
f 71//63 238//63 237//63 70//63
f 100//64 236//64 238//64 71//64
f 239//65 240//65 241//65 242//65
f 243//66 244//66 240//66 239//66
f 245//67 246//67 244//67 243//67
f 242//68 241//68 246//68 245//68
f 247//69 248//69 249//69 250//69
f 251//70 252//70 248//70 247//70
f 253//71 254//71 252//71 251//71
f 250//72 249//72 254//72 253//72
f 255//73 256//73 257//73 258//73
f 259//74 260//74 256//74 255//74
f 261//75 262//75 260//75 259//75
f 258//76 257//76 262//76 261//76
f 113//9 116//9 115//9 114//9
f 122//77 121//77 90//77 89//77
f 87//77 70//77 73//77 84//77
f 29//78 55//78 54//78 62//78
f 63//78 11//78 14//78 64//78
