# Blender v2.80 (sub 75) OBJ File: ''
# www.blender.org
mtllib concretebridge.mtl
o Cylinder.000_Cylinder.005
v 0.494373 0.547800 -1.417234
v 0.494373 0.575572 -1.395469
v 1.534726 0.575572 -1.395470
v 1.534726 0.547800 -1.417234
v -0.477428 0.526035 -1.389460
v -0.477428 0.553808 -1.367696
v -1.453532 0.553808 -1.367696
v -1.453532 0.526035 -1.389460
v -0.477428 0.547800 -1.417234
v -1.453532 0.547800 -1.417234
v -0.477428 0.575572 -1.395469
v -1.453532 0.575572 -1.395468
v 0.494373 0.337072 -1.463987
v 0.494373 0.364845 -1.442222
v 1.534726 0.364845 -1.442222
v 1.534726 0.337072 -1.463987
v -0.477428 0.315308 -1.436214
v -0.477428 0.343080 -1.414450
v -1.453532 0.343080 -1.414450
v -1.453532 0.315308 -1.436214
v -0.477428 0.337072 -1.463988
v -1.453532 0.337072 -1.463988
v -0.477428 0.364845 -1.442222
v -1.453532 0.364845 -1.442222
v 0.494373 0.120691 -1.493464
v 0.494373 0.148464 -1.471699
v 1.534726 0.148464 -1.471699
v 1.534726 0.120691 -1.493464
v -0.477428 0.098927 -1.465691
v -0.477428 0.126700 -1.443925
v -1.453532 0.126700 -1.443925
v -1.453532 0.098927 -1.465691
v -0.477428 0.120691 -1.493464
v -1.453532 0.120691 -1.493464
v -0.477428 0.148464 -1.471699
v -1.453532 0.148464 -1.471699
v -0.496369 0.547800 1.417234
v -0.496369 0.575572 1.395470
v -1.534726 0.575572 1.395470
v -1.534726 0.547800 1.417234
v 0.481548 0.526035 1.389460
v 0.481548 0.553808 1.367696
v 1.453532 0.553808 1.367696
v 1.453532 0.526035 1.389460
v 0.481548 0.547800 1.417234
v 1.453532 0.547800 1.417234
v 0.481548 0.575572 1.395469
v 1.453532 0.575572 1.395468
v -0.496369 0.337072 1.463988
v -0.496369 0.364845 1.442222
v -1.534726 0.364845 1.442222
v -1.534726 0.337072 1.463988
v 0.481548 0.315308 1.436214
v 0.481548 0.343080 1.414450
v 1.453532 0.343080 1.414450
v 1.453532 0.315308 1.436214
v 0.481548 0.337072 1.463988
v 1.453532 0.337072 1.463988
v 0.481548 0.364845 1.442222
v 1.453532 0.364845 1.442222
v -0.496369 0.120691 1.493465
v -0.496369 0.148464 1.471699
v -1.534726 0.148464 1.471699
v -1.534726 0.120691 1.493465
v 0.481548 0.098927 1.465691
v 0.481548 0.126700 1.443925
v 1.453532 0.126700 1.443925
v 1.453532 0.098927 1.465691
v 0.481548 0.120691 1.493464
v 1.453532 0.120691 1.493464
v 0.481548 0.148464 1.471699
v 1.453532 0.148464 1.471699
v -1.534726 0.553808 1.367697
v -0.496369 0.553808 1.367697
v -1.534726 0.526035 1.389460
v -0.496369 0.526035 1.389460
v -1.534726 0.343080 1.414450
v -0.496369 0.343080 1.414450
v -1.534726 0.315308 1.436214
v -0.496369 0.315308 1.436214
v -1.534726 0.126700 1.443926
v -0.496369 0.126700 1.443926
v -1.534726 0.098927 1.465691
v -0.496369 0.098927 1.465691
v 1.534726 0.553808 -1.367696
v 0.494373 0.553808 -1.367696
v 1.534726 0.526035 -1.389460
v 0.494373 0.526035 -1.389460
v 1.534726 0.343080 -1.414450
v 0.494373 0.343080 -1.414450
v 1.534726 0.315308 -1.436214
v 0.494373 0.315308 -1.436214
v 1.534726 0.126700 -1.443925
v 0.494373 0.126700 -1.443925
v 1.534726 0.098927 -1.465691
v 0.494373 0.098927 -1.465691
v -1.184235 -0.035188 1.553093
v -1.578980 -0.035188 1.553093
v -1.578980 -0.543869 1.553093
v -1.184235 -0.543869 1.553093
v -1.578980 -0.543869 1.099750
v -1.184235 -0.543869 1.099750
v -1.578980 -0.848814 0.763322
v -1.184235 -0.848814 0.763322
v -1.578980 -0.543870 -1.553092
v -1.578980 -0.543870 -1.099749
v -1.578980 -0.848814 -0.763322
v -1.578980 -0.035188 -1.553092
v -1.184235 -0.848814 -0.763322
v -0.789490 -0.848814 -0.763322
v -0.789490 -0.848814 0.763322
v -0.394745 -0.848814 -0.763322
v -0.394745 -0.848814 0.763322
v 0.000000 -0.848814 -0.763322
v 0.000000 -0.848814 0.763322
v -1.184235 -0.543870 -1.099749
v -0.789490 -0.543870 -1.099749
v -0.394745 -0.543870 -1.099749
v 0.000000 -0.543870 -1.099749
v 0.000000 -0.543869 1.099749
v -0.394745 -0.543869 1.099749
v -0.789490 -0.543869 1.099750
v -1.184235 -0.543870 -1.553092
v -0.789490 -0.543870 -1.553092
v -0.394745 -0.543870 -1.553092
v 0.000000 -0.543870 -1.553092
v 0.000000 -0.543869 1.553092
v -0.394745 -0.543869 1.553092
v -0.789490 -0.543869 1.553093
v 0.000000 -0.035188 1.553092
v -0.394745 -0.035188 1.553093
v -0.789490 -0.035188 1.553093
v -1.184235 -0.035188 -1.553092
v -0.789490 -0.035188 -1.553092
v -0.394745 -0.035188 -1.553092
v 0.000000 -0.035188 -1.553092
v 1.184235 -0.035188 1.553092
v 1.184235 -0.543869 1.553092
v 1.578980 -0.543869 1.553092
v 1.578980 -0.035188 1.553092
v 1.184235 -0.543869 1.099749
v 1.578980 -0.543869 1.099749
v 1.184235 -0.848814 0.763322
v 1.578980 -0.848814 0.763322
v 1.578980 -0.543870 -1.553093
v 1.578980 -0.035188 -1.553093
v 1.578980 -0.848814 -0.763322
v 1.578980 -0.543870 -1.099750
v 1.184235 -0.848814 -0.763322
v 0.789490 -0.848814 0.763322
v 0.789490 -0.848814 -0.763322
v 0.394745 -0.848814 0.763322
v 0.394745 -0.848814 -0.763322
v 1.184235 -0.543870 -1.099750
v 0.789490 -0.543870 -1.099750
v 0.394745 -0.543870 -1.099750
v 0.394745 -0.543869 1.099749
v 0.789490 -0.543869 1.099749
v 1.184235 -0.543870 -1.553093
v 0.789490 -0.543870 -1.553093
v 0.394745 -0.543870 -1.553093
v 0.394745 -0.543869 1.553092
v 0.789490 -0.543869 1.553092
v 0.394745 -0.035188 1.553092
v 0.789490 -0.035188 1.553092
v 1.184235 -0.035188 -1.553093
v 0.789490 -0.035188 -1.553093
v 0.394745 -0.035188 -1.553092
v -0.559299 -0.035188 -1.553092
v -0.559299 -0.035188 -1.345829
v -0.547400 0.168925 -1.402074
v -0.547400 0.168925 -1.527980
v -0.547400 0.398942 -1.403421
v -0.547400 0.398942 -1.484687
v -0.547400 0.619824 -1.347103
v -0.547400 0.641113 -1.401924
v -0.419580 -0.036449 -1.553092
v -0.407681 0.167663 -1.527980
v -0.407681 0.167663 -1.402074
v -0.419580 -0.036449 -1.345829
v -0.407681 0.397679 -1.484687
v -0.407681 0.397679 -1.403421
v -0.407681 0.639850 -1.401924
v -0.407681 0.618562 -1.347103
v 1.445783 0.641113 -1.401924
v 1.445783 0.619824 -1.347103
v 1.578980 0.618562 -1.347103
v 1.578980 0.639850 -1.401924
v 1.433884 -0.035188 -1.553092
v 1.433884 -0.035188 -1.345829
v 1.445783 0.168925 -1.402074
v 1.445783 0.168925 -1.527980
v 1.445783 0.398942 -1.403420
v 1.445783 0.398942 -1.484687
v 1.578980 -0.036449 -1.553092
v 1.578980 0.167663 -1.527980
v 1.578980 0.167663 -1.402074
v 1.578980 -0.036449 -1.345829
v 1.578980 0.397679 -1.484687
v 1.578980 0.397679 -1.403421
v 0.426166 0.641113 -1.401924
v 0.426166 0.619824 -1.347103
v 0.565885 0.618562 -1.347103
v 0.565885 0.639850 -1.401924
v 0.414267 -0.035188 -1.553092
v 0.414267 -0.035188 -1.345829
v 0.426166 0.168925 -1.402074
v 0.426166 0.168925 -1.527980
v 0.426166 0.398942 -1.403420
v 0.426166 0.398942 -1.484687
v 0.553987 -0.036449 -1.553092
v 0.565885 0.167663 -1.527980
v 0.565885 0.167663 -1.402074
v 0.553987 -0.036449 -1.345829
v 0.565885 0.397679 -1.484687
v 0.565885 0.397679 -1.403420
v -1.578980 -0.035188 -1.553092
v -1.578980 -0.035188 -1.345829
v -1.578980 0.168925 -1.402074
v -1.578980 0.168925 -1.527980
v -1.578980 0.398942 -1.403421
v -1.578980 0.398942 -1.484687
v -1.578980 0.619824 -1.347103
v -1.578980 0.641113 -1.401924
v -1.439261 -0.036449 -1.553092
v -1.427362 0.167663 -1.527980
v -1.427362 0.167663 -1.402074
v -1.439261 -0.036449 -1.345829
v -1.427362 0.397679 -1.484687
v -1.427362 0.397679 -1.403421
v -1.427362 0.639850 -1.401924
v -1.427362 0.618562 -1.347103
v 0.559299 -0.035188 1.553092
v 0.559299 -0.035188 1.345829
v 0.547400 0.168925 1.402074
v 0.547400 0.168925 1.527980
v 0.547400 0.398942 1.403421
v 0.547400 0.398942 1.484687
v 0.547400 0.619824 1.347103
v 0.547400 0.641113 1.401924
v 0.419580 -0.036449 1.553092
v 0.407681 0.167663 1.527980
v 0.407681 0.167663 1.402074
v 0.419580 -0.036449 1.345830
v 0.407681 0.397679 1.484687
v 0.407681 0.397679 1.403421
v 0.407681 0.639850 1.401924
v 0.407681 0.618562 1.347104
v -1.433884 -0.035188 1.553093
v -1.433884 -0.035188 1.345830
v -1.445783 0.168925 1.402075
v -1.445783 0.168925 1.527980
v -1.445783 0.398942 1.403421
v -1.445783 0.398942 1.484687
v -1.445783 0.619824 1.347104
v -1.445783 0.641113 1.401924
v -1.578980 -0.036449 1.553093
v -1.578980 0.167663 1.527980
v -1.578980 0.167663 1.402075
v -1.578980 -0.036449 1.345830
v -1.578980 0.397679 1.484687
v -1.578980 0.397679 1.403421
v -1.578980 0.639850 1.401924
v -1.578980 0.618562 1.347104
v -0.414267 -0.035188 1.553093
v -0.414267 -0.035188 1.345830
v -0.426166 0.168925 1.402074
v -0.426166 0.168925 1.527980
v -0.426166 0.398942 1.403421
v -0.426166 0.398942 1.484687
v -0.426166 0.619824 1.347104
v -0.426166 0.641113 1.401924
v -0.553987 -0.036449 1.553093
v -0.565885 0.167663 1.527980
v -0.565885 0.167663 1.402074
v -0.553987 -0.036449 1.345830
v -0.565885 0.397679 1.484687
v -0.565885 0.397679 1.403421
v -0.565885 0.639850 1.401924
v -0.565885 0.618562 1.347104
v 1.578980 0.619824 1.347103
v 1.427362 0.618562 1.347103
v 1.427362 0.639850 1.401924
v 1.578980 0.641113 1.401924
v 1.578980 -0.035188 1.553092
v 1.578980 -0.035188 1.345829
v 1.578980 0.168925 1.402074
v 1.578980 0.168925 1.527980
v 1.578980 0.398942 1.403420
v 1.578980 0.398942 1.484687
v 1.439261 -0.036449 1.553092
v 1.427362 0.167663 1.527980
v 1.427362 0.167663 1.402074
v 1.439261 -0.036449 1.345829
v 1.427362 0.397679 1.484687
v 1.427362 0.397679 1.403421
vn -0.0000 0.6168 -0.7871
vn 0.0000 -0.6168 0.7871
vn 0.0000 -0.7871 -0.6168
vn 0.0000 0.7871 0.6168
vn 0.0000 0.6168 0.7871
vn -0.0000 -0.6168 -0.7871
vn 0.0000 -0.7871 0.6168
vn -0.0000 0.7871 -0.6168
vn 0.0000 0.6169 0.7871
vn -0.0000 0.6169 -0.7871
vn 0.0000 -0.0000 1.0000
vn 0.0000 -1.0000 -0.0000
vn 0.0000 -0.7409 0.6716
vn -1.0000 0.0000 0.0000
vn 0.0000 -0.7409 -0.6716
vn 0.0000 0.0000 -1.0000
vn -0.0000 1.0000 0.0000
vn 1.0000 -0.0000 0.0000
vn -0.9983 0.0582 0.0000
vn 0.9983 -0.0582 -0.0000
vn 0.0088 0.9321 0.3620
vn 0.0011 0.1220 -0.9925
vn -0.0090 -1.0000 -0.0000
vn 0.0029 0.3234 -0.9463
vn 0.0017 0.1850 -0.9827
vn 0.0024 0.2655 0.9641
vn -0.0022 -0.2471 0.9690
vn 0.0001 0.0059 1.0000
vn 0.0084 0.9321 0.3620
vn 0.0011 0.1221 -0.9925
vn -0.0087 -1.0000 -0.0000
vn 0.0031 0.3234 -0.9463
vn 0.0018 0.1850 -0.9827
vn 0.0024 0.2656 0.9641
vn -0.0023 -0.2471 0.9690
vn 0.0027 0.3234 -0.9463
vn 0.0015 0.1850 -0.9827
vn 0.0023 0.2656 0.9641
vn -0.0021 -0.2471 0.9690
vn 0.0000 0.0059 1.0000
vn 0.0078 0.9322 0.3620
vn 0.9983 0.0582 0.0000
vn -0.9983 -0.0582 -0.0000
vn -0.0011 0.1220 0.9925
vn -0.0029 0.3234 0.9463
vn -0.0017 0.1850 0.9827
vn -0.0024 0.2655 -0.9641
vn 0.0022 -0.2471 -0.9690
vn -0.0001 0.0059 -1.0000
vn -0.0011 0.1221 0.9925
vn -0.0031 0.3234 0.9463
vn -0.0018 0.1850 0.9827
vn -0.0024 0.2656 -0.9641
vn 0.0023 -0.2471 -0.9690
vn -0.0078 0.9322 -0.3620
vn -0.0084 0.9321 -0.3620
vn -0.0088 0.9321 -0.3620
vn -0.0027 0.3234 0.9463
vn -0.0015 0.1850 0.9827
vn -0.0023 0.2656 -0.9641
vn 0.0021 -0.2471 -0.9690
usemtl Concrete
s 1
f 1//1 2//1 3//1 4//1
f 5//2 6//2 7//2 8//2
f 9//3 5//3 8//3 10//3
f 6//4 11//4 12//4 7//4
f 13//1 14//1 15//1 16//1
f 17//2 18//2 19//2 20//2
f 21//3 17//3 20//3 22//3
f 18//4 23//4 24//4 19//4
f 25//1 26//1 27//1 28//1
f 29//2 30//2 31//2 32//2
f 33//3 29//3 32//3 34//3
f 30//4 35//4 36//4 31//4
f 37//5 38//5 39//5 40//5
f 41//6 42//6 43//6 44//6
f 45//7 41//7 44//7 46//7
f 42//8 47//8 48//8 43//8
f 49//5 50//5 51//5 52//5
f 53//6 54//6 55//6 56//6
f 57//7 53//7 56//7 58//7
f 54//8 59//8 60//8 55//8
f 61//5 62//5 63//5 64//5
f 65//6 66//6 67//6 68//6
f 69//7 65//7 68//7 70//7
f 66//8 71//8 72//8 67//8
f 73//8 39//8 38//8 74//8
f 74//8 38//8 47//8 42//8
f 40//7 75//7 76//7 37//7
f 37//7 76//7 41//7 45//7
f 75//6 73//6 74//6 76//6
f 76//6 74//6 42//6 41//6
f 46//9 48//9 47//5 45//5
f 45//5 47//5 38//5 37//5
f 77//8 51//8 50//8 78//8
f 78//8 50//8 59//8 54//8
f 52//7 79//7 80//7 49//7
f 49//7 80//7 53//7 57//7
f 79//6 77//6 78//6 80//6
f 80//6 78//6 54//6 53//6
f 58//5 60//5 59//5 57//5
f 57//5 59//5 50//5 49//5
f 81//8 63//8 62//8 82//8
f 82//8 62//8 71//8 66//8
f 64//7 83//7 84//7 61//7
f 61//7 84//7 65//7 69//7
f 83//6 81//6 82//6 84//6
f 84//6 82//6 66//6 65//6
f 70//5 72//5 71//5 69//5
f 69//5 71//5 62//5 61//5
f 85//4 3//4 2//4 86//4
f 86//4 2//4 11//4 6//4
f 4//3 87//3 88//3 1//3
f 1//3 88//3 5//3 9//3
f 87//2 85//2 86//2 88//2
f 88//2 86//2 6//2 5//2
f 10//10 12//10 11//1 9//1
f 9//1 11//1 2//1 1//1
f 89//4 15//4 14//4 90//4
f 90//4 14//4 23//4 18//4
f 16//3 91//3 92//3 13//3
f 13//3 92//3 17//3 21//3
f 91//2 89//2 90//2 92//2
f 92//2 90//2 18//2 17//2
f 22//1 24//1 23//1 21//1
f 21//1 23//1 14//1 13//1
f 93//4 27//4 26//4 94//4
f 94//4 26//4 35//4 30//4
f 28//3 95//3 96//3 25//3
f 25//3 96//3 29//3 33//3
f 95//2 93//2 94//2 96//2
f 96//2 94//2 30//2 29//2
f 34//1 36//1 35//1 33//1
f 33//1 35//1 26//1 25//1
f 97//11 98//11 99//11 100//11
f 100//12 99//12 101//12 102//12
f 102//13 101//13 103//13 104//13
f 105//14 106//14 107//14 103//14 101//14 99//14 98//14 108//14
f 107//12 109//12 104//12 103//12
f 109//12 110//12 111//12 104//12
f 110//12 112//12 113//12 111//12
f 112//12 114//12 115//12 113//12
f 106//15 116//15 109//15 107//15
f 116//15 117//15 110//15 109//15
f 117//15 118//15 112//15 110//15
f 118//15 119//15 114//15 112//15
f 120//13 121//13 113//13 115//13
f 121//13 122//13 111//13 113//13
f 122//13 102//13 104//13 111//13
f 105//12 123//12 116//12 106//12
f 123//12 124//12 117//12 116//12
f 124//12 125//12 118//12 117//12
f 125//12 126//12 119//12 118//12
f 127//12 128//12 121//12 120//12
f 128//12 129//12 122//12 121//12
f 129//12 100//12 102//12 122//12
f 130//11 131//11 128//11 127//11
f 131//11 132//11 129//11 128//11
f 132//11 97//11 100//11 129//11
f 108//16 133//16 123//16 105//16
f 133//16 134//16 124//16 123//16
f 134//16 135//16 125//16 124//16
f 135//16 136//16 126//16 125//16
f 98//17 97//17 133//17 108//17
f 97//17 132//17 134//17 133//17
f 132//17 131//17 135//17 134//17
f 131//17 130//17 136//17 135//17
f 137//11 138//11 139//11 140//11
f 138//12 141//12 142//12 139//12
f 141//13 143//13 144//13 142//13
f 145//18 146//18 140//18 139//18 142//18 144//18 147//18 148//18
f 147//12 144//12 143//12 149//12
f 149//12 143//12 150//12 151//12
f 151//12 150//12 152//12 153//12
f 153//12 152//12 115//12 114//12
f 148//15 147//15 149//15 154//15
f 154//15 149//15 151//15 155//15
f 155//15 151//15 153//15 156//15
f 156//15 153//15 114//15 119//15
f 120//13 115//13 152//13 157//13
f 157//13 152//13 150//13 158//13
f 158//13 150//13 143//13 141//13
f 145//12 148//12 154//12 159//12
f 159//12 154//12 155//12 160//12
f 160//12 155//12 156//12 161//12
f 161//12 156//12 119//12 126//12
f 127//12 120//12 157//12 162//12
f 162//12 157//12 158//12 163//12
f 163//12 158//12 141//12 138//12
f 130//11 127//11 162//11 164//11
f 164//11 162//11 163//11 165//11
f 165//11 163//11 138//11 137//11
f 146//16 145//16 159//16 166//16
f 166//16 159//16 160//16 167//16
f 167//16 160//16 161//16 168//16
f 168//16 161//16 126//16 136//16
f 140//17 146//17 166//17 137//17
f 137//17 166//17 167//17 165//17
f 165//17 167//17 168//17 164//17
f 164//17 168//17 136//17 130//17
f 169//19 170//19 171//19 172//19
f 172//14 171//14 173//14 174//14
f 174//14 173//14 175//14 176//14
f 177//20 178//20 179//20 180//20
f 178//18 181//18 182//18 179//18
f 181//18 183//18 184//18 182//18
f 185//21 186//21 187//21 188//21
f 172//22 178//22 177//22 169//22
f 169//23 177//23 180//23 170//23
f 176//24 183//24 181//24 174//24
f 174//25 181//25 178//25 172//25
f 170//26 180//26 179//26 171//26
f 173//27 182//27 184//27 175//27
f 171//28 179//28 182//28 173//28
f 189//19 190//19 191//19 192//19
f 192//14 191//14 193//14 194//14
f 194//14 193//14 186//14 185//14
f 195//18 196//18 197//18 198//18
f 196//18 199//18 200//18 197//18
f 199//18 188//18 187//18 200//18
f 201//29 202//29 203//29 204//29
f 192//30 196//30 195//30 189//30
f 189//31 195//31 198//31 190//31
f 185//32 188//32 199//32 194//32
f 194//33 199//33 196//33 192//33
f 190//34 198//34 197//34 191//34
f 193//35 200//35 187//35 186//35
f 191//28 197//28 200//28 193//28
f 205//19 206//19 207//19 208//19
f 208//14 207//14 209//14 210//14
f 210//14 209//14 202//14 201//14
f 211//20 212//20 213//20 214//20
f 212//18 215//18 216//18 213//18
f 215//18 204//18 203//18 216//18
f 176//29 175//29 184//29 183//29
f 208//22 212//22 211//22 205//22
f 205//23 211//23 214//23 206//23
f 201//24 204//24 215//24 210//24
f 210//25 215//25 212//25 208//25
f 206//26 214//26 213//26 207//26
f 209//27 216//27 203//27 202//27
f 207//28 213//28 216//28 209//28
f 217//14 218//14 219//14 220//14
f 220//14 219//14 221//14 222//14
f 222//14 221//14 223//14 224//14
f 225//20 226//20 227//20 228//20
f 226//18 229//18 230//18 227//18
f 229//18 231//18 232//18 230//18
f 220//30 226//30 225//30 217//30
f 224//36 231//36 229//36 222//36
f 222//37 229//37 226//37 220//37
f 218//38 228//38 227//38 219//38
f 221//39 230//39 232//39 223//39
f 219//40 227//40 230//40 221//40
f 224//41 223//41 232//41 231//41
f 233//42 234//42 235//42 236//42
f 236//18 235//18 237//18 238//18
f 238//18 237//18 239//18 240//18
f 241//43 242//43 243//43 244//43
f 242//14 245//14 246//14 243//14
f 245//14 247//14 248//14 246//14
f 236//44 242//44 241//44 233//44
f 240//45 247//45 245//45 238//45
f 238//46 245//46 242//46 236//46
f 234//47 244//47 243//47 235//47
f 237//48 246//48 248//48 239//48
f 235//49 243//49 246//49 237//49
f 249//42 250//42 251//42 252//42
f 252//18 251//18 253//18 254//18
f 254//18 253//18 255//18 256//18
f 257//14 258//14 259//14 260//14
f 258//14 261//14 262//14 259//14
f 261//14 263//14 264//14 262//14
f 252//50 258//50 257//50 249//50
f 256//51 263//51 261//51 254//51
f 254//52 261//52 258//52 252//52
f 250//53 260//53 259//53 251//53
f 253//54 262//54 264//54 255//54
f 251//49 259//49 262//49 253//49
f 265//42 266//42 267//42 268//42
f 268//18 267//18 269//18 270//18
f 270//18 269//18 271//18 272//18
f 273//43 274//43 275//43 276//43
f 274//14 277//14 278//14 275//14
f 277//14 279//14 280//14 278//14
f 268//50 274//50 273//50 265//50
f 272//45 279//45 277//45 270//45
f 270//46 277//46 274//46 268//46
f 266//47 276//47 275//47 267//47
f 269//48 278//48 280//48 271//48
f 267//49 275//49 278//49 269//49
f 281//55 282//55 283//55 284//55
f 239//56 248//56 247//56 240//56
f 271//56 280//56 279//56 272//56
f 255//57 264//57 263//57 256//57
f 285//18 286//18 287//18 288//18
f 288//18 287//18 289//18 290//18
f 290//18 289//18 281//18 284//18
f 291//43 292//43 293//43 294//43
f 292//14 295//14 296//14 293//14
f 295//14 283//14 282//14 296//14
f 288//50 292//50 291//50 285//50
f 284//58 283//58 295//58 290//58
f 290//59 295//59 292//59 288//59
f 286//60 294//60 293//60 287//60
f 289//61 296//61 282//61 281//61
f 287//49 293//49 296//49 289//49
