# Blender v2.80 (sub 75) OBJ File: ''
# www.blender.org
mtllib ovalbridgepillar.mtl
o Cylinder
v 0.000000 -0.088944 0.310142
v 0.000000 0.998860 0.310143
v 0.211570 0.998860 0.397779
v 0.211570 -0.088944 0.397778
v 0.299206 0.998860 0.609349
v 0.299206 -0.088944 0.609348
v 0.211570 0.998860 0.820919
v 0.211570 -0.088944 0.820918
v 0.000000 0.998860 0.908554
v 0.000000 -0.088944 0.908554
v -0.211570 0.998860 0.820919
v -0.211570 -0.088944 0.820918
v -0.299206 0.998860 0.609349
v -0.299206 -0.088944 0.609348
v -0.211570 0.998860 0.397779
v -0.211570 -0.088944 0.397778
v -0.000000 -0.088944 -0.919930
v 0.211570 -0.088944 -0.832294
v -0.000000 0.998860 -0.919930
v 0.211570 0.998860 -0.832294
v 0.299206 -0.088944 -0.620724
v 0.299206 0.998860 -0.620724
v -0.299206 0.998860 -0.620724
v -0.299206 -0.088944 -0.620724
v -0.211570 -0.088944 -0.832294
v -0.211570 0.998860 -0.832294
vn -0.0000 -1.0000 -0.0000
vn 0.0000 1.0000 0.0000
vn 0.9239 -0.0000 0.3827
vn 0.3827 -0.0000 0.9239
vn -0.3827 -0.0000 0.9239
vn -0.9239 -0.0000 0.3827
vn 0.3827 0.0000 -0.9239
vn 0.9239 0.0000 -0.3827
vn -0.9239 0.0000 -0.3827
vn -0.3827 0.0000 -0.9239
vn 1.0000 0.0000 0.0000
vn -1.0000 0.0000 0.0000
usemtl Concrete
s off
f 16//1 14//1 24//1 25//1
f 2//2 3//2 20//2 19//2
f 3//2 5//2 22//2 20//2
f 1//1 16//1 25//1 17//1
f 15//2 2//2 19//2 26//2
f 13//2 15//2 26//2 23//2
f 4//1 1//1 17//1 18//1
f 6//1 4//1 18//1 21//1
s 1
f 6//3 5//3 7//3 8//3
f 8//4 7//4 9//4 10//4
f 10//5 9//5 11//5 12//5
f 12//6 11//6 13//6 14//6
f 17//7 19//7 20//7 18//7
f 18//8 20//8 22//8 21//8
f 24//9 23//9 26//9 25//9
f 25//10 26//10 19//10 17//10
f 5//11 6//11 21//11 22//11
f 14//12 13//12 23//12 24//12
