# Blender v2.80 (sub 75) OBJ File: ''
# www.blender.org
mtllib suspensionbridgepillar.mtl
o Cylinder.001
v -0.146407 1.865335 -2.045054
v -0.146406 10.674442 -2.045054
v -0.099809 10.674442 -2.157548
v -0.099810 1.865335 -2.157548
v 0.012685 10.674442 -2.204144
v 0.012684 1.865335 -2.204145
v 0.125179 10.674442 -2.157547
v 0.125178 1.865335 -2.157548
v 0.171776 10.674442 -2.045053
v 0.171775 1.865335 -2.045054
v 0.125179 10.674442 -1.932560
v 0.125178 1.865335 -1.932560
v 0.012685 10.674442 -1.885963
v 0.012684 1.865335 -1.885963
v -0.099809 10.674442 -1.932560
v -0.099810 1.865335 -1.932560
v -0.146407 1.865334 1.954946
v -0.146406 10.674442 1.954946
v -0.099809 10.674442 1.842452
v -0.099810 1.865334 1.842452
v 0.012685 10.674442 1.795855
v 0.012684 1.865334 1.795855
v 0.125180 10.674442 1.842452
v 0.125179 1.865334 1.842452
v 0.171777 10.674442 1.954947
v 0.171776 1.865334 1.954946
v 0.125180 10.674442 2.067441
v 0.125178 1.865334 2.067440
v 0.012686 10.674442 2.114038
v 0.012684 1.865334 2.114037
v -0.099808 10.674442 2.067440
v -0.099810 1.865334 2.067440
v -0.294365 1.755702 1.954946
v -0.204432 1.755702 2.172062
v -0.146406 10.556549 1.948369
v -0.146406 10.556549 -2.087061
v -0.099809 10.444056 -2.087061
v -0.099809 10.444056 1.948369
v 0.012685 10.397459 -2.087061
v 0.012684 10.397459 1.948369
v 0.125179 10.444056 -2.087061
v 0.125178 10.444056 1.948369
v 0.171776 10.556549 -2.087061
v 0.171777 10.556549 1.948369
v 0.125179 10.669044 -2.087060
v 0.125180 10.669044 1.948370
v 0.012685 10.715643 -2.087060
v 0.012686 10.715643 1.948370
v -0.099809 10.669044 -2.087061
v -0.099809 10.669044 1.948369
v -0.146406 7.764189 1.948369
v -0.146406 7.764189 -2.087061
v -0.099809 7.651694 -2.087061
v -0.099808 7.651696 1.948369
v 0.012685 7.605098 -2.087061
v 0.012685 7.605098 1.948369
v 0.125179 7.651694 -2.087061
v 0.125179 7.651696 1.948369
v 0.171776 7.764189 -2.087061
v 0.171776 7.764189 1.948369
v 0.125179 7.876683 -2.087061
v 0.125180 7.876683 1.948369
v 0.012685 7.923280 -2.087061
v 0.012686 7.923280 1.948369
v -0.099809 7.876683 -2.087061
v -0.099809 7.876683 1.948369
v -0.146405 5.412325 1.948370
v -0.146406 5.412326 -2.087060
v -0.099809 5.299831 -2.087060
v -0.099808 5.299829 1.948370
v 0.012685 5.253236 -2.087060
v 0.012686 5.253234 1.948370
v 0.125179 5.299831 -2.087060
v 0.125180 5.299830 1.948370
v 0.171776 5.412326 -2.087060
v 0.171777 5.412325 1.948369
v 0.125179 5.524821 -2.087060
v 0.125179 5.524820 1.948369
v 0.012685 5.571418 -2.087060
v 0.012685 5.571417 1.948369
v -0.099809 5.524821 -2.087060
v -0.099808 5.524820 1.948370
v -0.146406 7.800502 1.893961
v -0.146406 5.412145 -2.042251
v -0.099809 5.312729 -1.989606
v -0.099808 7.701084 1.946606
v 0.012685 5.271550 -1.967800
v 0.012685 7.659906 1.968412
v 0.125179 5.312729 -1.989606
v 0.125179 7.701084 1.946606
v 0.171776 5.412145 -2.042251
v 0.171777 7.800502 1.893961
v 0.125179 5.511561 -2.094895
v 0.125180 7.899917 1.841317
v 0.012685 5.552742 -2.116701
v 0.012685 7.941098 1.819511
v -0.099809 5.511561 -2.094895
v -0.099809 7.899917 1.841317
v -0.146406 10.566269 1.957071
v -0.146406 7.912564 -2.042251
v -0.099809 7.813146 -1.989607
v -0.099809 10.466856 2.009715
v 0.012685 7.771968 -1.967801
v 0.012685 10.425673 2.031521
v 0.125179 7.813146 -1.989607
v 0.125180 10.466856 2.009715
v 0.171776 7.912564 -2.042251
v 0.171777 10.566269 1.957071
v 0.125179 8.011978 -2.094896
v 0.125179 10.665688 1.904426
v 0.012685 8.053159 -2.116702
v 0.012685 10.706865 1.882620
v -0.099809 8.011978 -2.094896
v -0.099809 10.665688 1.904426
v -0.146406 7.827711 1.839905
v -0.146406 10.566164 -2.048295
v -0.099809 10.476437 -2.116149
v -0.099808 7.737985 1.772053
v 0.012685 10.439272 -2.144254
v 0.012686 7.700817 1.743946
v 0.125179 10.476437 -2.116149
v 0.125179 7.737985 1.772053
v 0.171776 10.566164 -2.048295
v 0.171777 7.827711 1.839905
v 0.125179 10.655891 -1.980442
v 0.125180 7.917440 1.907759
v 0.012685 10.693058 -1.952337
v 0.012685 7.954605 1.935865
v -0.099809 10.655891 -1.980443
v -0.099809 7.917440 1.907759
v -0.146405 5.422040 1.915747
v -0.146406 7.737068 -2.064035
v -0.099809 7.643296 -2.126177
v -0.099808 5.328267 1.853606
v 0.012685 7.604452 -2.151917
v 0.012686 5.289424 1.827865
v 0.125179 7.643296 -2.126177
v 0.125180 5.328267 1.853606
v 0.171776 7.737068 -2.064035
v 0.171777 5.422040 1.915746
v 0.125179 7.830841 -2.001894
v 0.125179 5.515814 1.977889
v 0.012685 7.869683 -1.976154
v 0.012685 5.554656 2.003628
v -0.099809 7.830841 -2.001894
v -0.099808 5.515814 1.977889
v -0.146404 3.078653 1.948369
v -0.146406 3.078653 -2.087060
v -0.099809 2.966159 -2.087060
v -0.099808 2.966159 1.948369
v 0.012685 2.919564 -2.087060
v 0.012687 2.919562 1.948369
v 0.125179 2.966159 -2.087060
v 0.125181 2.966159 1.948369
v 0.171776 3.078653 -2.087060
v 0.171778 3.078653 1.948368
v 0.125179 3.191149 -2.087060
v 0.125180 3.191148 1.948368
v 0.012685 3.237746 -2.087060
v 0.012686 3.237745 1.948368
v -0.099809 3.191149 -2.087060
v -0.099808 3.191148 1.948369
v -0.146405 5.466830 1.893961
v -0.146406 3.078473 -2.042251
v -0.099809 2.979056 -1.989607
v -0.099808 5.367411 1.946606
v 0.012685 2.937877 -1.967801
v 0.012686 5.326234 1.968412
v 0.125179 2.979056 -1.989606
v 0.125180 5.367411 1.946606
v 0.171776 3.078473 -2.042251
v 0.171776 5.466830 1.893961
v 0.125179 3.177889 -2.094895
v 0.125180 5.566245 1.841317
v 0.012685 3.219070 -2.116701
v 0.012685 5.607425 1.819511
v -0.099809 3.177889 -2.094895
v -0.099808 5.566245 1.841317
v -0.146405 3.088368 1.915747
v -0.146405 5.403396 -2.064035
v -0.099808 5.309624 -2.126177
v -0.099808 2.994595 1.853606
v 0.012686 5.270781 -2.151917
v 0.012686 2.955752 1.827864
v 0.125180 5.309624 -2.126177
v 0.125181 2.994595 1.853606
v 0.171777 5.403396 -2.064035
v 0.171778 3.088368 1.915746
v 0.125180 5.497169 -2.001894
v 0.125179 3.182142 1.977889
v 0.012686 5.536011 -1.976154
v 0.012685 3.220984 2.003628
v -0.099808 5.497169 -2.001894
v -0.099808 3.182142 1.977889
v 0.012684 1.755702 2.261995
v -0.204432 1.755702 1.737830
v 0.012684 1.755702 1.647896
v 0.229801 1.755702 1.737830
v 0.229801 1.755702 2.172062
v 0.319734 1.755702 1.954946
v 0.319734 1.390489 1.954946
v 0.229801 1.390489 1.737830
v -0.237046 1.772393 -2.045054
v -0.163901 1.772393 -1.868469
v 0.262414 1.772393 -2.045054
v 0.189269 1.772393 -1.868469
v 0.189269 1.396271 -1.868469
v 0.262414 1.396271 -2.045054
v -0.204432 1.390489 2.172062
v 0.012685 1.390489 2.261995
v 0.012685 1.390489 1.647896
v -0.204432 1.390489 1.737830
v 0.229801 1.390489 2.172062
v -0.294365 1.390489 1.954946
v -0.163901 1.772393 -2.221639
v 0.012684 1.772393 -1.795324
v 0.012684 1.772393 -2.294784
v 0.189269 1.772393 -2.221639
v -0.163901 1.396271 -2.221639
v -0.237046 1.396271 -2.045054
v -0.163902 1.396271 -1.868469
v 0.012685 1.396271 -1.795324
v 0.189269 1.396271 -2.221639
v 0.012684 1.396271 -2.294784
v 0.019986 -0.511508 -3.190648
v 0.019985 1.493117 -3.190648
v 1.023268 1.493117 -2.547608
v 1.023269 -0.511508 -2.547608
v 1.438842 1.493117 0.004956
v 1.438842 -0.511508 0.004956
v 1.023269 1.493117 2.647998
v 1.023269 -0.511508 2.647998
v 0.019986 1.493117 3.200560
v 0.019986 -0.511508 3.200560
v -0.983297 1.493115 2.647998
v -0.983297 -0.511508 2.647998
v -1.398870 1.493115 0.004956
v -1.398870 -0.511508 0.004956
v -0.983298 1.493115 -2.547608
v -0.983297 -0.511508 -2.547608
vn -0.9239 0.0000 -0.3827
vn -0.3827 0.0000 -0.9239
vn 0.3827 0.0000 -0.9239
vn 0.9239 -0.0000 -0.3827
vn 0.9239 -0.0000 0.3827
vn 0.3827 -0.0000 0.9239
vn 0.0000 1.0000 0.0000
vn -0.3827 0.0000 0.9239
vn -0.9239 0.0000 0.3827
vn -0.5780 0.7801 0.2394
vn -0.9239 -0.3827 0.0000
vn -0.3827 -0.9239 -0.0000
vn 0.3827 -0.9239 0.0000
vn 0.9239 -0.3827 -0.0000
vn 0.9239 0.3827 -0.0000
vn 0.3827 0.9239 -0.0000
vn 0.0000 0.0000 -1.0000
vn -0.3827 0.9239 0.0000
vn -0.9239 0.3827 0.0000
vn -0.0000 -0.0000 1.0000
vn -0.9236 -0.3276 0.1988
vn -0.3821 -0.7901 0.4794
vn 0.3821 -0.7901 0.4794
vn 0.9236 -0.3276 0.1988
vn 0.9236 0.3276 -0.1988
vn 0.3821 0.7900 -0.4794
vn -0.3821 0.7900 -0.4794
vn -0.9236 0.3276 -0.1988
vn -0.9232 -0.3202 0.2125
vn -0.3811 -0.7704 0.5112
vn 0.3811 -0.7704 0.5112
vn 0.9232 -0.3202 0.2125
vn 0.9232 0.3202 -0.2125
vn 0.3811 0.7704 -0.5112
vn -0.3811 0.7704 -0.5112
vn -0.9232 0.3202 -0.2125
vn -0.9238 -0.3130 -0.2205
vn -0.3825 -0.7554 -0.5320
vn 0.3825 -0.7554 -0.5320
vn 0.9238 -0.3130 -0.2205
vn 0.9238 0.3130 0.2205
vn 0.3825 0.7554 0.5320
vn -0.3825 0.7554 0.5320
vn -0.9238 0.3130 0.2205
vn -0.9236 -0.3313 -0.1927
vn -0.3821 -0.7988 -0.4647
vn 0.3821 -0.7988 -0.4647
vn 0.9236 -0.3313 -0.1927
vn 0.9236 0.3313 0.1927
vn 0.3821 0.7988 0.4647
vn -0.3821 0.7988 0.4647
vn -0.9236 0.3313 0.1927
vn 0.9237 -0.3276 0.1988
vn -0.2394 0.7801 0.5780
vn -0.5780 0.7801 -0.2394
vn -0.2394 0.7801 -0.5780
vn 0.2394 0.7801 -0.5780
vn 0.2394 0.7801 0.5780
vn 0.5780 0.7801 0.2394
vn -0.6864 0.6694 0.2843
vn 0.5780 0.7801 -0.2394
vn -0.6864 0.6694 -0.2843
vn 0.2843 0.6694 0.6864
vn -0.2843 0.6694 -0.6864
vn 0.6864 0.6694 -0.2843
vn -0.2843 0.6694 0.6864
vn 0.2843 0.6694 -0.6864
vn 0.6864 0.6694 0.2843
vn 0.5396 0.0000 -0.8419
vn 0.9870 0.0000 -0.1607
vn 0.9879 0.0000 0.1553
vn 0.4824 0.0000 0.8759
vn -0.4824 -0.0000 0.8759
vn -0.9879 -0.0000 0.1553
vn -0.9870 -0.0000 -0.1607
vn -0.5396 -0.0000 -0.8419
vn 0.0000 -1.0000 0.0000
usemtl Centerpiece
s 1
f 1//1 2//1 3//1 4//1
f 4//2 3//2 5//2 6//2
f 6//3 5//3 7//3 8//3
f 8//4 7//4 9//4 10//4
f 10//5 9//5 11//5 12//5
f 12//6 11//6 13//6 14//6
f 3//7 2//7 15//7 13//7 11//7 9//7 7//7 5//7
f 14//8 13//8 15//8 16//8
f 16//9 15//9 2//9 1//9
f 17//1 18//1 19//1 20//1
f 20//2 19//2 21//2 22//2
f 22//3 21//3 23//3 24//3
f 24//4 23//4 25//4 26//4
f 26//5 25//5 27//5 28//5
f 28//6 27//6 29//6 30//6
f 19//7 18//7 31//7 29//7 27//7 25//7 23//7 21//7
f 30//8 29//8 31//8 32//8
f 32//9 31//9 18//9 17//9
f 32//10 17//10 33//10 34//10
f 35//11 36//11 37//11 38//11
f 38//12 37//12 39//12 40//12
f 40//13 39//13 41//13 42//13
f 42//14 41//14 43//14 44//14
f 44//15 43//15 45//15 46//15
f 46//16 45//16 47//16 48//16
f 37//17 36//17 49//17 47//17 45//17 43//17 41//17 39//17
f 48//18 47//18 49//18 50//18
f 50//19 49//19 36//19 35//19
f 35//20 38//20 40//20 42//20 44//20 46//20 48//20 50//20
f 51//11 52//11 53//11 54//11
f 54//12 53//12 55//12 56//12
f 56//13 55//13 57//13 58//13
f 58//14 57//14 59//14 60//14
f 60//15 59//15 61//15 62//15
f 62//16 61//16 63//16 64//16
f 64//18 63//18 65//18 66//18
f 66//19 65//19 52//19 51//19
f 67//11 68//11 69//11 70//11
f 70//12 69//12 71//12 72//12
f 72//13 71//13 73//13 74//13
f 74//14 73//14 75//14 76//14
f 76//15 75//15 77//15 78//15
f 78//16 77//16 79//16 80//16
f 80//18 79//18 81//18 82//18
f 82//19 81//19 68//19 67//19
f 83//21 84//21 85//21 86//21
f 86//22 85//22 87//22 88//22
f 88//23 87//23 89//23 90//23
f 90//24 89//24 91//24 92//24
f 92//25 91//25 93//25 94//25
f 94//26 93//26 95//26 96//26
f 96//27 95//27 97//27 98//27
f 98//28 97//28 84//28 83//28
f 99//29 100//29 101//29 102//29
f 102//30 101//30 103//30 104//30
f 104//31 103//31 105//31 106//31
f 106//32 105//32 107//32 108//32
f 108//33 107//33 109//33 110//33
f 110//34 109//34 111//34 112//34
f 112//35 111//35 113//35 114//35
f 114//36 113//36 100//36 99//36
f 115//37 116//37 117//37 118//37
f 118//38 117//38 119//38 120//38
f 120//39 119//39 121//39 122//39
f 122//40 121//40 123//40 124//40
f 124//41 123//41 125//41 126//41
f 126//42 125//42 127//42 128//42
f 128//43 127//43 129//43 130//43
f 130//44 129//44 116//44 115//44
f 131//45 132//45 133//45 134//45
f 134//46 133//46 135//46 136//46
f 136//47 135//47 137//47 138//47
f 138//48 137//48 139//48 140//48
f 140//49 139//49 141//49 142//49
f 142//50 141//50 143//50 144//50
f 144//51 143//51 145//51 146//51
f 146//52 145//52 132//52 131//52
f 147//11 148//11 149//11 150//11
f 150//12 149//12 151//12 152//12
f 152//13 151//13 153//13 154//13
f 154//14 153//14 155//14 156//14
f 156//15 155//15 157//15 158//15
f 158//16 157//16 159//16 160//16
f 160//18 159//18 161//18 162//18
f 162//19 161//19 148//19 147//19
f 163//21 164//21 165//21 166//21
f 166//22 165//22 167//22 168//22
f 168//23 167//23 169//23 170//23
f 170//53 169//53 171//53 172//53
f 172//25 171//25 173//25 174//25
f 174//26 173//26 175//26 176//26
f 176//27 175//27 177//27 178//27
f 178//28 177//28 164//28 163//28
f 179//45 180//45 181//45 182//45
f 182//46 181//46 183//46 184//46
f 184//47 183//47 185//47 186//47
f 186//48 185//48 187//48 188//48
f 188//49 187//49 189//49 190//49
f 190//50 189//50 191//50 192//50
f 192//51 191//51 193//51 194//51
f 194//52 193//52 180//52 179//52
f 30//54 32//54 34//54 195//54
f 17//55 20//55 196//55 33//55
f 20//56 22//56 197//56 196//56
f 22//57 24//57 198//57 197//57
f 28//58 30//58 195//58 199//58
f 26//59 28//59 199//59 200//59
f 198//4 200//4 201//4 202//4
f 16//60 1//60 203//60 204//60
f 24//61 26//61 200//61 198//61
f 205//5 206//5 207//5 208//5
f 195//8 34//8 209//8 210//8
f 196//2 197//2 211//2 212//2
f 197//3 198//3 202//3 211//3
f 200//5 199//5 213//5 201//5
f 199//6 195//6 210//6 213//6
f 34//9 33//9 214//9 209//9
f 33//1 196//1 212//1 214//1
f 1//62 4//62 215//62 203//62
f 12//63 14//63 216//63 206//63
f 4//64 6//64 217//64 215//64
f 8//65 10//65 205//65 218//65
f 14//66 16//66 204//66 216//66
f 6//67 8//67 218//67 217//67
f 10//68 12//68 206//68 205//68
f 203//1 215//1 219//1 220//1
f 216//8 204//8 221//8 222//8
f 218//4 205//4 208//4 223//4
f 215//2 217//2 224//2 219//2
f 206//6 216//6 222//6 207//6
f 217//3 218//3 223//3 224//3
f 204//9 203//9 220//9 221//9
usemtl Concrete
f 225//69 226//69 227//69 228//69
f 228//70 227//70 229//70 230//70
f 230//71 229//71 231//71 232//71
f 232//72 231//72 233//72 234//72
f 234//73 233//73 235//73 236//73
f 236//74 235//74 237//74 238//74
f 227//7 226//7 239//7 237//7 235//7 233//7 231//7 229//7
f 238//75 237//75 239//75 240//75
f 240//76 239//76 226//76 225//76
f 225//77 228//77 230//77 232//77 234//77 236//77 238//77 240//77
